<svg width="128" height="128" viewBox="0 0 128 128" xmlns="http://www.w3.org/2000/svg">
  <!-- Background circle -->
  <circle cx="64" cy="64" r="60" fill="#1e1e1e" />
  
  <!-- Ghost body -->
  <path d="M64 24C45.2 24 32 37.2 32 56v36c0 2.2 1.8 4 4 4h6c1.1 0 2 0.9 2 2v6c0 1.1 0.9 2 2 2c0.6 0 1.1-0.2 1.5-0.7l10.2-12.8c0.9-1.1 2.2-1.8 3.7-1.8H68c18.8 0 32-13.2 32-32V56c0-18.8-13.2-32-32-32z" fill="#f0f0f0"/>
  
  <!-- Ghost eyes -->
  <circle cx="52" cy="52" r="4" fill="#1e1e1e"/>
  <circle cx="76" cy="52" r="4" fill="#1e1e1e"/>
  
  <!-- Code symbols -->
  <path d="M46 64L38 72L46 80" stroke="#007acc" stroke-width="3" stroke-linecap="round" stroke-linejoin="round" fill="none"/>
  <path d="M82 64L90 72L82 80" stroke="#007acc" stroke-width="3" stroke-linecap="round" stroke-linejoin="round" fill="none"/>
  <path d="M70 62L58 82" stroke="#007acc" stroke-width="3" stroke-linecap="round" stroke-linejoin="round" fill="none"/>
  
  <!-- Keyboard glow effect under ghost -->
  <rect x="32" y="90" width="64" height="8" rx="4" fill="#007acc" opacity="0.3"/>
  
  <!-- Ghost shadow -->
  <ellipse cx="64" cy="104" rx="24" ry="4" fill="#000000" opacity="0.2"/>
</svg> 